<?xml version="1.0" encoding="UTF-8" ?>
<!DOCTYPE svg PUBLIC "-//W3C//DTD SVG 1.1//EN" "http://www.w3.org/Graphics/SVG/1.1/DTD/svg11.dtd">
<svg width="423pt" height="384pt" viewBox="0 0 423 384" version="1.1" xmlns="http://www.w3.org/2000/svg">
<g id="#fafafaff">
<path fill="#fafafa" stroke="#fafafa" stroke-width="0.09375" opacity="1.00" d=" M 0.00 0.00 L 423.00 0.00 L 423.00 384.00 L 0.00 384.00 L 0.00 0.00 M 137.29 49.42 C 136.86 50.59 136.42 51.75 135.98 52.92 C 143.55 55.89 150.96 59.20 158.23 62.84 C 148.31 69.70 139.48 78.80 135.00 90.17 C 131.61 98.24 131.02 107.19 132.60 115.74 C 129.22 130.03 126.17 144.45 124.84 159.10 C 124.56 162.08 124.55 165.10 123.81 168.02 C 117.24 194.06 117.02 222.02 125.24 247.72 C 128.99 259.85 134.84 271.37 142.72 281.34 C 144.58 283.60 147.84 282.27 149.07 280.05 C 152.83 274.24 154.48 267.37 156.37 260.79 C 157.89 262.26 159.48 263.66 161.05 265.08 C 156.67 282.49 164.06 301.98 178.89 312.10 C 188.10 318.62 199.00 322.41 210.02 324.50 C 224.62 321.67 239.48 315.93 249.60 304.60 C 259.28 293.86 262.78 278.41 259.59 264.41 C 261.18 263.05 262.72 261.65 264.25 260.23 C 266.19 267.00 267.95 274.09 272.10 279.90 C 273.44 282.09 277.01 282.99 278.66 280.69 C 285.37 271.72 290.57 261.61 293.99 250.93 C 302.85 224.44 302.92 195.49 296.35 168.48 C 294.91 163.48 295.62 158.22 295.06 153.10 C 293.35 139.59 290.63 126.17 287.14 113.02 C 288.28 105.22 287.32 97.12 284.17 89.87 C 279.62 78.62 270.78 69.72 260.99 62.85 C 268.25 59.23 275.65 55.94 283.19 52.95 C 282.83 51.76 282.46 50.57 282.11 49.38 C 273.71 52.73 265.39 56.28 257.41 60.55 C 244.14 53.53 229.08 49.92 214.06 50.84 C 208.40 51.46 202.75 50.32 197.09 50.86 C 184.85 51.23 172.91 54.88 162.11 60.55 C 154.03 56.43 145.78 52.65 137.29 49.42 Z" />
<path fill="#fafafa" stroke="#fafafa" stroke-width="0.09375" opacity="1.00" d=" M 165.95 62.66 C 175.95 57.94 186.79 54.79 197.91 54.55 C 202.98 54.14 208.04 55.13 213.11 54.65 C 226.95 53.65 240.90 56.59 253.35 62.67 C 242.08 69.18 231.11 76.72 222.76 86.83 C 217.63 93.10 213.57 100.65 213.09 108.88 C 212.30 119.31 217.22 129.42 224.15 136.95 C 231.43 145.05 243.41 148.45 253.90 145.62 C 263.13 143.20 271.14 137.51 277.88 130.91 C 281.01 127.74 283.30 123.88 285.09 119.83 C 288.46 135.00 291.86 150.34 291.81 165.96 C 293.25 189.49 290.35 214.02 278.87 234.96 C 264.99 260.74 238.47 278.48 209.99 284.01 C 195.93 281.24 182.32 275.70 170.62 267.36 C 152.68 255.54 139.62 236.98 133.39 216.51 C 124.07 185.67 127.93 152.70 135.10 121.84 C 140.00 131.27 148.63 138.22 157.96 142.99 C 167.44 147.77 179.35 148.31 188.60 142.69 C 195.95 138.33 201.00 130.93 204.29 123.20 C 208.49 113.18 206.49 101.44 200.63 92.51 C 192.24 79.46 179.19 70.29 165.95 62.66 M 199.97 135.75 C 203.23 140.34 206.38 144.99 209.60 149.60 C 212.81 145.00 215.97 140.36 219.21 135.78 C 214.94 134.15 212.14 130.41 209.72 126.74 C 207.11 130.33 204.36 134.23 199.97 135.75 Z" />
<path fill="#fafafa" stroke="#fafafa" stroke-width="0.09375" opacity="1.00" d=" M 136.97 96.00 C 140.65 82.73 150.64 72.28 161.94 64.94 C 173.42 71.31 184.59 78.74 193.19 88.79 C 198.19 94.79 202.24 102.05 202.51 110.03 C 202.97 118.71 198.81 126.91 193.39 133.43 C 188.15 139.68 179.96 143.33 171.81 142.97 C 161.19 142.16 151.83 135.89 144.43 128.59 C 135.96 120.29 133.53 107.16 136.97 96.00 M 168.31 94.15 C 160.57 95.63 154.70 103.26 155.24 111.12 C 155.43 118.91 162.02 125.91 169.76 126.61 C 176.53 127.49 183.57 123.59 186.46 117.42 C 189.47 111.36 188.23 103.45 183.34 98.73 C 179.54 94.78 173.67 93.04 168.31 94.15 Z" />
<path fill="#fafafa" stroke="#fafafa" stroke-width="0.09375" opacity="1.00" d=" M 229.74 84.72 C 237.84 76.70 247.46 70.36 257.43 64.90 C 265.36 70.32 272.80 76.88 277.68 85.27 C 283.32 94.68 285.89 106.59 282.03 117.13 C 279.34 125.50 272.44 131.60 265.36 136.36 C 258.04 141.22 248.83 144.55 240.05 142.11 C 233.53 140.62 227.79 136.46 223.97 131.02 C 219.07 124.48 215.84 116.29 216.88 108.01 C 217.90 98.89 223.47 91.09 229.74 84.72 M 244.35 94.63 C 237.40 96.74 232.43 103.87 232.97 111.14 C 233.10 120.49 242.62 128.28 251.83 126.53 C 261.04 125.40 267.77 115.46 265.35 106.48 C 263.51 97.43 253.06 91.51 244.35 94.63 Z" />
<path fill="#fafafa" stroke="#fafafa" stroke-width="0.09375" opacity="1.00" d=" M 166.53 98.60 C 174.04 94.99 183.88 100.74 184.29 109.07 C 185.32 116.54 178.38 123.60 170.93 122.97 C 164.72 122.73 159.24 117.35 159.00 111.13 C 158.50 105.89 161.78 100.72 166.53 98.60 M 168.35 103.21 C 163.27 105.36 162.26 113.03 166.76 116.30 C 170.86 120.05 178.39 117.45 179.27 111.95 C 180.92 105.95 173.85 100.32 168.35 103.21 Z" />
<path fill="#fafafa" stroke="#fafafa" stroke-width="0.09375" opacity="1.00" d=" M 244.42 98.53 C 248.06 97.00 252.33 97.39 255.82 99.14 C 262.61 103.14 264.65 113.88 258.34 119.27 C 253.45 124.91 244.17 123.92 239.55 118.48 C 234.10 112.35 236.75 101.48 244.42 98.53 M 246.25 103.15 C 241.00 105.17 239.90 113.04 244.49 116.33 C 248.64 120.01 256.06 117.45 256.96 111.95 C 258.62 106.02 251.72 100.43 246.25 103.15 Z" />
<path fill="#fafafa" stroke="#fafafa" stroke-width="0.09375" opacity="1.00" d=" M 205.63 137.08 C 207.04 135.79 208.39 134.45 209.65 133.01 C 210.96 134.41 212.32 135.78 213.70 137.12 C 212.32 139.06 210.97 141.03 209.65 143.01 C 208.35 141.01 206.99 139.05 205.63 137.08 Z" />
<path fill="#fafafa" stroke="#fafafa" stroke-width="0.09375" opacity="1.00" d=" M 124.43 184.85 C 124.99 211.39 134.38 238.56 153.30 257.65 C 151.23 264.84 149.62 272.38 145.49 278.75 C 133.59 264.06 127.41 245.66 124.28 227.24 C 122.15 213.22 121.92 198.83 124.43 184.85 Z" />
<path fill="#fafafa" stroke="#fafafa" stroke-width="0.09375" opacity="1.00" d=" M 295.59 184.66 C 299.69 208.81 296.60 233.97 287.76 256.75 C 284.54 264.41 280.61 271.83 275.52 278.43 C 271.04 272.14 269.40 264.45 267.28 257.16 C 285.47 237.73 294.91 211.04 295.59 184.66 Z" />
<path fill="#fafafa" stroke="#fafafa" stroke-width="0.09375" opacity="1.00" d=" M 209.80 287.70 C 226.70 284.74 242.55 277.31 256.20 267.02 C 258.52 279.74 254.96 293.59 245.96 303.01 C 237.71 311.68 226.36 316.64 214.94 319.59 C 212.69 320.03 210.38 321.08 208.09 320.31 C 195.61 317.45 182.96 312.48 174.10 302.90 C 165.41 293.59 161.94 280.05 164.32 267.62 C 177.70 277.68 193.29 284.79 209.80 287.70 Z" />
</g>
<g id="#000000ff">
<path fill="#000000" stroke="#000000" stroke-width="0.09375" opacity="1.00" d=" M 137.29 49.42 C 145.78 52.65 154.03 56.43 162.11 60.55 C 172.91 54.88 184.85 51.23 197.09 50.86 C 202.75 50.32 208.40 51.46 214.06 50.84 C 229.08 49.92 244.14 53.53 257.41 60.55 C 265.39 56.28 273.71 52.73 282.11 49.38 C 282.46 50.57 282.83 51.76 283.19 52.95 C 275.65 55.94 268.25 59.23 260.99 62.85 C 270.78 69.72 279.62 78.62 284.17 89.87 C 287.32 97.12 288.28 105.22 287.14 113.02 C 290.63 126.17 293.35 139.59 295.06 153.10 C 295.62 158.22 294.91 163.48 296.35 168.48 C 302.92 195.49 302.85 224.44 293.99 250.93 C 290.57 261.61 285.37 271.72 278.66 280.69 C 277.01 282.99 273.44 282.09 272.10 279.90 C 267.95 274.09 266.19 267.00 264.25 260.23 C 262.72 261.65 261.18 263.05 259.59 264.41 C 262.78 278.41 259.28 293.86 249.60 304.60 C 239.48 315.93 224.62 321.67 210.02 324.50 C 199.00 322.41 188.10 318.62 178.89 312.10 C 164.06 301.98 156.67 282.49 161.05 265.08 C 159.48 263.66 157.89 262.26 156.37 260.79 C 154.48 267.37 152.83 274.24 149.07 280.05 C 147.84 282.27 144.58 283.60 142.72 281.34 C 134.84 271.37 128.99 259.85 125.24 247.72 C 117.02 222.02 117.24 194.06 123.81 168.02 C 124.55 165.10 124.56 162.08 124.84 159.10 C 126.17 144.45 129.22 130.03 132.60 115.74 C 131.02 107.19 131.61 98.24 135.00 90.17 C 139.48 78.80 148.31 69.70 158.23 62.84 C 150.96 59.20 143.55 55.89 135.98 52.92 C 136.42 51.75 136.86 50.59 137.29 49.42 M 165.95 62.66 C 179.19 70.29 192.24 79.46 200.63 92.51 C 206.49 101.44 208.49 113.18 204.29 123.20 C 201.00 130.93 195.95 138.33 188.60 142.69 C 179.35 148.31 167.44 147.77 157.96 142.99 C 148.63 138.22 140.00 131.27 135.10 121.84 C 127.93 152.70 124.07 185.67 133.39 216.51 C 139.62 236.98 152.68 255.54 170.62 267.36 C 182.32 275.70 195.93 281.24 209.99 284.01 C 238.47 278.48 264.99 260.74 278.87 234.96 C 290.35 214.02 293.25 189.49 291.81 165.96 C 291.86 150.34 288.46 135.00 285.09 119.83 C 283.30 123.88 281.01 127.74 277.88 130.91 C 271.14 137.51 263.13 143.20 253.90 145.62 C 243.41 148.45 231.43 145.05 224.15 136.95 C 217.22 129.42 212.30 119.31 213.09 108.88 C 213.57 100.65 217.63 93.10 222.76 86.83 C 231.11 76.72 242.08 69.18 253.35 62.67 C 240.90 56.59 226.95 53.65 213.11 54.65 C 208.04 55.13 202.98 54.14 197.91 54.55 C 186.79 54.79 175.95 57.94 165.95 62.66 M 136.97 96.00 C 133.53 107.16 135.96 120.29 144.43 128.59 C 151.83 135.89 161.19 142.16 171.81 142.97 C 179.96 143.33 188.15 139.68 193.39 133.43 C 198.81 126.91 202.97 118.71 202.51 110.03 C 202.24 102.05 198.19 94.79 193.19 88.79 C 184.59 78.74 173.42 71.31 161.94 64.94 C 150.64 72.28 140.65 82.73 136.97 96.00 M 229.74 84.72 C 223.47 91.09 217.90 98.89 216.88 108.01 C 215.84 116.29 219.07 124.48 223.97 131.02 C 227.79 136.46 233.53 140.62 240.05 142.11 C 248.83 144.55 258.04 141.22 265.36 136.36 C 272.44 131.60 279.34 125.50 282.03 117.13 C 285.89 106.59 283.32 94.68 277.68 85.27 C 272.80 76.88 265.36 70.32 257.43 64.90 C 247.46 70.36 237.84 76.70 229.74 84.72 M 124.43 184.85 C 121.92 198.83 122.15 213.22 124.28 227.24 C 127.41 245.66 133.59 264.06 145.49 278.75 C 149.62 272.38 151.23 264.84 153.30 257.65 C 134.38 238.56 124.99 211.39 124.43 184.85 M 295.59 184.66 C 294.91 211.04 285.47 237.73 267.28 257.16 C 269.40 264.45 271.04 272.14 275.52 278.43 C 280.61 271.83 284.54 264.41 287.76 256.75 C 296.60 233.97 299.69 208.81 295.59 184.66 M 209.80 287.70 C 193.29 284.79 177.70 277.68 164.32 267.62 C 161.94 280.05 165.41 293.59 174.10 302.90 C 182.96 312.48 195.61 317.45 208.09 320.31 C 210.38 321.08 212.69 320.03 214.94 319.59 C 226.36 316.64 237.71 311.68 245.96 303.01 C 254.96 293.59 258.52 279.74 256.20 267.02 C 242.55 277.31 226.70 284.74 209.80 287.70 Z" />
<path fill="#000000" stroke="#000000" stroke-width="0.09375" opacity="1.00" d=" M 168.31 94.15 C 173.67 93.04 179.54 94.78 183.34 98.73 C 188.23 103.45 189.47 111.36 186.46 117.42 C 183.57 123.59 176.53 127.49 169.76 126.61 C 162.02 125.91 155.43 118.91 155.24 111.12 C 154.70 103.26 160.57 95.63 168.31 94.15 M 166.53 98.60 C 161.78 100.72 158.50 105.89 159.00 111.13 C 159.24 117.35 164.72 122.73 170.93 122.97 C 178.38 123.60 185.32 116.54 184.29 109.07 C 183.88 100.74 174.04 94.99 166.53 98.60 Z" />
<path fill="#000000" stroke="#000000" stroke-width="0.09375" opacity="1.00" d=" M 244.35 94.63 C 253.06 91.51 263.51 97.43 265.35 106.48 C 267.77 115.46 261.04 125.40 251.83 126.53 C 242.62 128.28 233.10 120.49 232.97 111.14 C 232.43 103.87 237.40 96.74 244.35 94.63 M 244.42 98.53 C 236.75 101.48 234.10 112.35 239.55 118.48 C 244.17 123.92 253.45 124.91 258.34 119.27 C 264.65 113.88 262.61 103.14 255.82 99.14 C 252.33 97.39 248.06 97.00 244.42 98.53 Z" />
<path fill="#000000" stroke="#000000" stroke-width="0.09375" opacity="1.00" d=" M 168.35 103.21 C 173.85 100.32 180.92 105.95 179.27 111.95 C 178.39 117.45 170.86 120.05 166.76 116.30 C 162.26 113.03 163.27 105.36 168.35 103.21 Z" />
<path fill="#000000" stroke="#000000" stroke-width="0.09375" opacity="1.00" d=" M 246.25 103.15 C 251.72 100.43 258.62 106.02 256.96 111.95 C 256.06 117.45 248.64 120.01 244.49 116.33 C 239.90 113.04 241.00 105.17 246.25 103.15 Z" />
<path fill="#000000" stroke="#000000" stroke-width="0.09375" opacity="1.00" d=" M 199.97 135.75 C 204.36 134.23 207.11 130.33 209.72 126.74 C 212.14 130.41 214.94 134.15 219.21 135.78 C 215.97 140.36 212.81 145.00 209.60 149.60 C 206.38 144.99 203.23 140.34 199.97 135.75 M 205.63 137.08 C 206.99 139.05 208.35 141.01 209.65 143.01 C 210.97 141.03 212.32 139.06 213.70 137.12 C 212.32 135.78 210.96 134.41 209.65 133.01 C 208.39 134.45 207.04 135.79 205.63 137.08 Z" />
</g>
</svg>
